<svg width="180" height="180" viewBox="0 0 180 180" fill="none" xmlns="http://www.w3.org/2000/svg">
<g clip-path="url(#clip0_125_2)">
<rect width="180" height="180" rx="50" fill="#106ECC"/>
<path d="M60.3057 44C75.9385 44 88.6121 56.6728 88.6123 72.3057C88.6123 87.9387 75.9387 100.612 60.3057 100.612C44.6728 100.612 32 87.9385 32 72.3057C32.0002 56.673 44.673 44.0002 60.3057 44ZM60.627 58.1191C52.9687 58.1191 46.7598 64.3271 46.7598 71.9854C46.7598 79.6436 52.9687 85.8516 60.627 85.8516C68.2851 85.8514 74.4932 79.6435 74.4932 71.9854C74.4931 64.3272 68.2851 58.1193 60.627 58.1191Z" fill="white"/>
<path d="M119.253 106.709C135.417 106.709 148.521 119.813 148.521 135.978C148.521 135.985 148.521 135.993 148.521 136H133.922C133.925 135.883 133.927 135.765 133.927 135.646C133.927 127.728 127.508 121.308 119.589 121.308C111.67 121.308 105.251 127.728 105.251 135.646C105.251 135.765 105.252 135.883 105.255 136H89.9844C89.9844 135.993 89.9844 135.985 89.9844 135.978C89.9846 119.813 103.089 106.709 119.253 106.709Z" fill="white"/>
<path d="M120.217 44C135.272 44.0001 147.58 55.7546 148.469 70.5869H134.335C133.634 63.5854 127.724 58.1191 120.538 58.1191C112.88 58.1193 106.672 64.3272 106.672 71.9854C106.672 79.6435 112.88 85.8514 120.538 85.8516C127.503 85.8516 133.268 80.7164 134.255 74.0254H148.469C147.58 88.8576 135.272 100.612 120.217 100.612C104.584 100.612 91.9102 87.9385 91.9102 72.3057C91.9104 56.673 104.584 44.0003 120.217 44Z" fill="white"/>
<rect x="32" y="106.709" width="58.2624" height="14.7604" fill="white"/>
<rect x="53.9102" y="136" width="29.2916" height="14.7604" transform="rotate(-90 53.9102 136)" fill="white"/>
</g>
<defs>
<clipPath id="clip0_125_2">
<rect width="180" height="180" rx="50" fill="white"/>
</clipPath>
</defs>
</svg>
