<?xml version="1.0" encoding="utf-8"?>
<svg width="128" height="128" viewBox="0 0 128 128" fill="none" xmlns="http://www.w3.org/2000/svg">
  <g>
    <g>
      <rect width="128" height="128" fill="#1029CC" fill-rule="evenodd" />
      <rect width="128" height="128" fill="#106ECC" fill-rule="evenodd" />
      <path d="M19.2969 0C29.9544 0 38.5938 8.63937 38.5938 19.2969C38.5938 29.9544 29.9544 38.5938 19.2969 38.5938C8.63937 38.5938 0 29.9544 0 19.2969C0 8.63937 8.63937 0 19.2969 0ZM19.5156 9.625C14.2947 9.625 10.0625 13.8572 10.0625 19.0781C10.0625 24.2991 14.2947 28.5312 19.5156 28.5312C24.7366 28.5312 28.9688 24.2991 28.9688 19.0781C28.9688 13.8572 24.7366 9.625 19.5156 9.625Z" fill="#FFFFFF" transform="translate(24.281 32)" />
      <path d="M19.9531 0C30.9728 0 39.9062 8.93344 39.9062 19.9531C39.9062 19.9584 39.9062 19.9634 39.9062 19.9688C39.9062 19.9688 29.9509 19.9688 29.9509 19.9688C29.9528 19.8884 29.9541 19.8078 29.9541 19.7269C29.9541 14.3284 25.5778 9.95219 20.1794 9.95219C14.7809 9.95219 10.4047 14.3284 10.4047 19.7269C10.4047 19.8078 10.4056 19.8884 10.4075 19.9688C10.4075 19.9688 0 19.9688 0 19.9688C0 19.9634 0 19.9584 0 19.9531C0 8.93344 8.93344 0 19.9531 0Z" fill="#FFFFFF" fill-rule="evenodd" transform="translate(63.813 74.75)" />
      <path d="M19.2969 0C29.5606 0 37.9528 8.01344 38.5587 18.125C38.5587 18.125 28.9212 18.125 28.9212 18.125C28.4434 13.3519 24.4147 9.625 19.5156 9.625C14.2947 9.625 10.0625 13.8572 10.0625 19.0781C10.0625 24.2991 14.2947 28.5312 19.5156 28.5312C24.2641 28.5312 28.1947 25.0303 28.8672 20.4688C28.8672 20.4688 38.5587 20.4688 38.5587 20.4688C37.9528 30.5803 29.5606 38.5938 19.2969 38.5938C8.63937 38.5938 0 29.9544 0 19.2969C0 8.63937 8.63937 0 19.2969 0Z" fill="#FFFFFF" fill-rule="evenodd" transform="translate(65.125 32)" />
      <rect width="39.719" height="10.063" fill="#FFFFFF" fill-rule="evenodd" transform="translate(24.281 74.75)" />
      <rect width="10.063" height="19.969" fill="#FFFFFF" fill-rule="evenodd" transform="translate(39.219 74.75)" />
      <path d="M1.15219 0C1.34531 0 1.53407 0.0499992 1.71812 0.149689C1.90219 0.248123 2.04562 0.389999 2.14844 0.575314C2.25125 0.759377 2.3025 0.951561 2.3025 1.15219C2.3025 1.35031 2.25156 1.54125 2.15 1.72438C2.04938 1.9075 1.9075 2.04969 1.72437 2.15156C1.54219 2.25219 1.35156 2.3025 1.15219 2.3025C0.952812 2.3025 0.761566 2.25219 0.578438 2.15156C0.396248 2.04969 0.254372 1.9075 0.152496 1.72438C0.0509338 1.54125 0 1.35031 0 1.15219C0 0.951561 0.0512466 0.759377 0.15406 0.575314C0.257812 0.389999 0.401878 0.248123 0.585938 0.149689C0.769997 0.0499992 0.958748 0 1.15219 0ZM1.15219 0.190624C0.990311 0.190624 0.832497 0.232498 0.679062 0.315937C0.526566 0.398125 0.406876 0.516876 0.320312 0.671249C0.234062 0.825001 0.190628 0.985313 0.190628 1.15219C0.190628 1.31781 0.232811 1.47719 0.317497 1.62969C0.402809 1.78125 0.521873 1.89969 0.674377 1.98531C0.826874 2.06969 0.986252 2.11187 1.15219 2.11187C1.31781 2.11187 1.47719 2.06969 1.62968 1.98531C1.78219 1.89969 1.90063 1.78125 1.98531 1.62969C2.06969 1.47719 2.11188 1.31781 2.11188 1.15219C2.11188 0.985313 2.06844 0.825001 1.98219 0.671249C1.89656 0.516876 1.77719 0.398125 1.62344 0.315937C1.47 0.232498 1.31281 0.190624 1.15219 0.190624ZM1.70906 1.39313C1.67844 1.52031 1.61343 1.62188 1.51375 1.69844C1.415 1.77344 1.295 1.81125 1.15343 1.81125C0.974373 1.81125 0.829063 1.75312 0.717186 1.63719C0.605316 1.52126 0.549377 1.36063 0.549377 1.155C0.549377 1.02094 0.574684 0.904373 0.625626 0.805626C0.676559 0.70594 0.748749 0.631256 0.842186 0.581249C0.936874 0.530624 1.04469 0.505001 1.16563 0.505001C1.30093 0.505001 1.41344 0.537506 1.50313 0.602814C1.5925 0.666878 1.65343 0.754375 1.68625 0.865311C1.68625 0.865311 1.50437 0.909374 1.50437 0.909374C1.47406 0.834061 1.42875 0.776562 1.36875 0.736877C1.30968 0.696251 1.24 0.675938 1.15969 0.675938C1.04282 0.675938 0.945938 0.717815 0.86969 0.800938C0.794373 0.884377 0.756874 1.00406 0.756874 1.15969C0.756874 1.31532 0.792503 1.43344 0.863747 1.51375C0.935936 1.59312 1.02906 1.63281 1.14281 1.63281C1.23438 1.63281 1.31469 1.60625 1.38406 1.55344C1.45312 1.50031 1.49906 1.42875 1.52125 1.33812C1.52125 1.33812 1.70906 1.39313 1.70906 1.39313Z" fill="#FFFFFF" transform="translate(101.406 32)" />
    </g>
  </g>
</svg>
