<?xml version="1.0" encoding="utf-8"?>
<svg width="4109" height="4109" viewBox="0 0 4109 4109" fill="none" xmlns="http://www.w3.org/2000/svg">
  <g>
    <g fill="#106ECC" fill-rule="evenodd">
      <path d="M0 1521.85L0 760.926C0 550.802 74.29 371.45 222.87 222.87C371.45 74.29 550.802 0 760.926 0L3348.07 0C3558.2 0 3737.55 74.29 3886.13 222.87C4034.71 371.45 4109 550.802 4109 760.926L4109 3348.07C4109 3558.2 4034.71 3737.55 3886.13 3886.13C3737.55 4034.71 3558.2 4109 3348.07 4109L760.926 4109C550.802 4109 371.45 4034.71 222.87 3886.13C74.29 3737.55 0 3558.2 0 3348.07L0 1521.85Z" />
      <path d="M0 760.926L0 3348.07C0 3558.2 74.29 3737.55 222.87 3886.13C371.45 4034.71 550.802 4109 760.926 4109L3348.07 4109C3558.2 4109 3737.55 4034.71 3886.13 3886.13C4034.71 3737.55 4109 3558.2 4109 3348.07L4109 760.926C4109 550.802 4034.71 371.45 3886.13 222.87C3737.55 74.29 3558.2 0 3348.07 0L760.926 0C550.802 0 371.45 74.29 222.87 222.87Q0 445.74 0 760.926ZM1.00002 3348.07L1 1521.85L1 760.926Q1 446.156 223.577 223.577Q446.148 1 760.926 1.00002L3348.07 1Q3662.88 1 3885.42 223.577Q4108 446.18 4108 760.926L4108 3348.07Q4108 3662.88 3885.42 3885.42Q3662.88 4108 3348.07 4108L760.926 4108Q446.172 4108 223.577 3885.42Q1 3662.88 1.00002 3348.07Z" fill="#808080" fill-rule="evenodd" />
    </g>
    <g transform="translate(790 1051)">
      <path d="M617.5 0C958.54 0 1235 276.46 1235 617.5C1235 958.54 958.54 1235 617.5 1235C276.46 1235 0 958.54 0 617.5C0 276.46 276.46 0 617.5 0ZM624.5 308C457.43 308 322 443.43 322 610.5C322 777.57 457.43 913 624.5 913C791.57 913 927 777.57 927 610.5C927 443.43 791.57 308 624.5 308Z" fill="#FFFFFF" />
      <path d="M638.5 0C991.13 0 1277 285.87 1277 638.5C1277 638.67 1277 638.83 1277 639C1277 639 958.43 639 958.43 639C958.49 636.43 958.53 633.85 958.53 631.26C958.53 458.51 818.49 318.47 645.74 318.47C472.99 318.47 332.95 458.51 332.95 631.26C332.95 633.85 332.98 636.43 333.04 639C333.04 639 0 639 0 639C0 638.83 0 638.67 0 638.5C0 285.87 285.87 0 638.5 0Z" fill="#FFFFFF" fill-rule="evenodd" transform="translate(1265 1368)" />
      <path d="M617.5 0C945.94 0 1214.49 256.43 1233.88 580C1233.88 580 925.48 580 925.48 580C910.19 427.26 781.27 308 624.5 308C457.43 308 322 443.43 322 610.5C322 777.57 457.43 913 624.5 913C776.45 913 902.23 800.97 923.75 655C923.75 655 1233.88 655 1233.88 655C1214.49 978.57 945.94 1235 617.5 1235C276.46 1235 0 958.54 0 617.5C0 276.46 276.46 0 617.5 0Z" fill="#FFFFFF" fill-rule="evenodd" transform="translate(1307 0)" />
      <rect width="1271" height="322" fill="#FFFFFF" fill-rule="evenodd" transform="translate(0 1368)" />
      <rect width="322" height="639" fill="#FFFFFF" fill-rule="evenodd" transform="translate(478 1368)" />
      <path d="M36.8701 9.53674e-07C43.05 9.53674e-07 49.0901 1.59998 54.98 4.79004C60.8701 7.93994 65.46 12.48 68.75 18.41C72.04 24.3 73.6799 30.45 73.6799 36.87C73.6799 43.21 72.05 49.3199 68.8 55.1801C65.5801 61.04 61.04 65.59 55.1799 68.85C49.3501 72.0699 43.25 73.6801 36.8701 73.6801C30.49 73.6801 24.3701 72.0699 18.51 68.85C12.6799 65.59 8.13989 61.04 4.87988 55.1801C1.62988 49.3199 0 43.21 0 36.87C0 30.45 1.63989 24.3 4.92993 18.41C8.25 12.48 12.8601 7.93994 18.75 4.79004C24.6399 1.59998 30.6799 9.53674e-07 36.8701 9.53674e-07ZM36.8701 6.09998C31.6899 6.09998 26.6399 7.43994 21.73 10.11C16.8501 12.74 13.02 16.54 10.25 21.48C7.48999 26.4 6.1001 31.53 6.1001 36.87C6.1001 42.17 7.44995 47.27 10.1599 52.15C12.8899 57 16.7 60.79 21.5801 63.53C26.46 66.23 31.5601 67.58 36.8701 67.58C42.1699 67.58 47.27 66.23 52.1499 63.53C57.03 60.79 60.8201 57 63.53 52.15C66.23 47.27 67.5801 42.17 67.5801 36.87C67.5801 31.53 66.1899 26.4 63.4299 21.48C60.6899 16.54 56.8701 12.74 51.95 10.11C47.04 7.43994 42.01 6.09998 36.8701 6.09998ZM54.6899 44.58C53.71 48.65 51.6299 51.9 48.4399 54.35C45.28 56.75 41.4399 57.96 36.9099 57.96C31.1799 57.96 26.53 56.1 22.95 52.39C19.3701 48.6801 17.5801 43.54 17.5801 36.96C17.5801 32.67 18.3899 28.9399 20.02 25.78C21.6499 22.59 23.96 20.2 26.95 18.6C29.98 16.98 33.4299 16.16 37.3 16.16C41.6299 16.16 45.23 17.2 48.1001 19.29C50.96 21.34 52.9099 24.14 53.96 27.6899C53.96 27.6899 48.1399 29.1 48.1399 29.1C47.1699 26.6899 45.72 24.85 43.8 23.58C41.9099 22.28 39.6799 21.63 37.1101 21.63C33.3701 21.63 30.27 22.97 27.8301 25.63C25.4199 28.3 24.22 32.13 24.22 37.11C24.22 42.09 25.3601 45.87 27.6399 48.4399C29.95 50.98 32.9299 52.25 36.5701 52.25C39.5 52.25 42.0701 51.4 44.29 49.71C46.5 48.01 47.97 45.72 48.6799 42.8199C48.6799 42.8199 54.6899 44.58 54.6899 44.58Z" fill="#FFFFFF" transform="translate(2468 0)" />
    </g>
  </g>
</svg>