<svg width="4096" height="4096" viewBox="0 0 4096 4096" fill="none" xmlns="http://www.w3.org/2000/svg">
<rect width="4096" height="4096" rx="1500" fill="#106ECC"/>
<path d="M1394.5 1024C1735.54 1024 2012 1300.46 2012 1641.5C2012 1982.54 1735.54 2259 1394.5 2259C1053.46 2259 777 1982.54 777 1641.5C777 1300.46 1053.46 1024 1394.5 1024ZM1401.5 1332C1234.43 1332 1099 1467.43 1099 1634.5C1099 1801.57 1234.43 1937 1401.5 1937C1568.57 1937 1704 1801.57 1704 1634.5C1704 1467.43 1568.57 1332 1401.5 1332Z" fill="white"/>
<path d="M2680.5 2392C3033.13 2392 3319 2677.87 3319 3030.5C3319 3030.67 3319 3030.83 3319 3031H3000.43C3000.49 3028.43 3000.53 3025.85 3000.53 3023.26C3000.53 2850.51 2860.49 2710.47 2687.74 2710.47C2514.99 2710.47 2374.95 2850.51 2374.95 3023.26C2374.95 3025.85 2374.98 3028.43 2375.04 3031H2042C2042 3030.83 2042 3030.67 2042 3030.5C2042 2677.87 2327.87 2392 2680.5 2392Z" fill="white"/>
<path d="M2701.5 1024C3029.94 1024 3298.49 1280.43 3317.88 1604H3009.48C2994.19 1451.26 2865.27 1332 2708.5 1332C2541.43 1332 2406 1467.43 2406 1634.5C2406 1801.57 2541.43 1937 2708.5 1937C2860.45 1937 2986.23 1824.97 3007.75 1679H3317.88C3298.49 2002.57 3029.94 2259 2701.5 2259C2360.46 2259 2084 1982.54 2084 1641.5C2084 1300.46 2360.46 1024 2701.5 1024Z" fill="white"/>
<rect x="777" y="2392" width="1271" height="322" fill="white"/>
<rect x="1255" y="3031" width="639" height="322" transform="rotate(-90 1255 3031)" fill="white"/>
<path d="M3281.87 1024C3288.05 1024 3294.09 1025.6 3299.98 1028.79C3305.87 1031.94 3310.46 1036.48 3313.75 1042.41C3317.04 1048.3 3318.68 1054.45 3318.68 1060.87C3318.68 1067.21 3317.05 1073.32 3313.8 1079.18C3310.58 1085.04 3306.04 1089.59 3300.18 1092.85C3294.35 1096.07 3288.25 1097.68 3281.87 1097.68C3275.49 1097.68 3269.37 1096.07 3263.51 1092.85C3257.68 1089.59 3253.14 1085.04 3249.88 1079.18C3246.63 1073.32 3245 1067.21 3245 1060.87C3245 1054.45 3246.64 1048.3 3249.93 1042.41C3253.25 1036.48 3257.86 1031.94 3263.75 1028.79C3269.64 1025.6 3275.68 1024 3281.87 1024ZM3281.87 1030.1C3276.69 1030.1 3271.64 1031.44 3266.73 1034.11C3261.85 1036.74 3258.02 1040.54 3255.25 1045.48C3252.49 1050.4 3251.1 1055.53 3251.1 1060.87C3251.1 1066.17 3252.45 1071.27 3255.16 1076.15C3257.89 1081 3261.7 1084.79 3266.58 1087.53C3271.46 1090.23 3276.56 1091.58 3281.87 1091.58C3287.17 1091.58 3292.27 1090.23 3297.15 1087.53C3302.03 1084.79 3305.82 1081 3308.53 1076.15C3311.23 1071.27 3312.58 1066.17 3312.58 1060.87C3312.58 1055.53 3311.19 1050.4 3308.43 1045.48C3305.69 1040.54 3301.87 1036.74 3296.95 1034.11C3292.04 1031.44 3287.01 1030.1 3281.87 1030.1ZM3293.68 1066.82L3299.69 1068.58C3298.71 1072.65 3296.63 1075.9 3293.44 1078.35C3290.28 1080.75 3286.44 1081.96 3281.91 1081.96C3276.18 1081.96 3271.53 1080.1 3267.95 1076.39C3264.37 1072.68 3262.58 1067.54 3262.58 1060.96C3262.58 1056.67 3263.39 1052.94 3265.02 1049.78C3266.65 1046.59 3268.96 1044.2 3271.95 1042.6C3274.98 1040.98 3278.43 1040.16 3282.3 1040.16C3286.63 1040.16 3290.23 1041.2 3293.1 1043.29C3295.96 1045.34 3297.91 1048.14 3298.96 1051.69L3293.14 1053.1C3292.17 1050.69 3290.72 1048.85 3288.8 1047.58C3286.91 1046.28 3284.68 1045.63 3282.11 1045.63C3278.37 1045.63 3275.27 1046.97 3272.83 1049.63C3270.42 1052.3 3269.22 1056.13 3269.22 1061.11C3269.22 1066.09 3270.36 1069.87 3272.64 1072.44C3274.95 1074.98 3277.93 1076.25 3281.57 1076.25C3284.5 1076.25 3287.07 1075.4 3289.29 1073.71C3291.5 1072.01 3292.97 1069.72 3293.68 1066.82Z" fill="white" fill-opacity="0.1"/>
</svg>
